<?xml version="1.0" encoding="UTF-8"?>
<svg version="1.1" xmlns="http://www.w3.org/2000/svg" width="517" height="196">
<path d="M0 0 C5.94 0 11.88 0 18 0 C27 27.84466019 27 27.84466019 27 35 C27.66 35 28.32 35 29 35 C29.0825 33.95714844 29.165 32.91429687 29.25 31.83984375 C30.03808353 25.54488783 32.097465 19.5927377 34 13.5625 C34.36867187 12.36689453 34.73734375 11.17128906 35.1171875 9.93945312 C37.85792991 1.14207009 37.85792991 1.14207009 39 0 C41.86267567 -0.07325168 44.700719 -0.09238205 47.5625 -0.0625 C48.36880859 -0.05798828 49.17511719 -0.05347656 50.00585938 -0.04882812 C52.00393756 -0.03700518 54.00197783 -0.01906914 56 0 C57.17867688 3.83640512 57.32086411 7.72332596 57.53515625 11.703125 C57.57813339 12.45857605 57.62111053 13.2140271 57.66539001 13.99237061 C57.75549847 15.59604355 57.84363056 17.19982859 57.92993164 18.80371094 C58.05980442 21.20025839 58.1983634 23.59618528 58.33789062 25.9921875 C58.90081423 36.00748801 59.11638408 45.96855479 59 56 C54.71 56 50.42 56 46 56 C45.34 43.79 44.68 31.58 44 19 C40.37 30.88 36.74 42.76 33 55 C29.04 55 25.08 55 21 55 C19.87669694 50.96213964 18.75575953 46.92363216 17.63696289 42.88452148 C17.2564201 41.51194747 16.87524338 40.13954904 16.4934082 38.76733398 C15.94313507 36.78936393 15.39518161 34.81076344 14.84765625 32.83203125 C14.51773682 31.64327393 14.18781738 30.4545166 13.84790039 29.22973633 C13.12979472 26.49440089 12.51555405 23.77940916 12 21 C11.03866295 26.83211141 10.72540437 32.59774483 10.5 38.5 C10.27459563 44.40225517 9.96133705 50.16788859 9 56 C5.04 56 1.08 56 -3 56 C-3.20026754 43.96725872 -2.41046209 32.11580612 -1.5 20.125 C-1.35500057 18.16539917 -1.21046601 16.20576388 -1.06640625 14.24609375 C-0.71714147 9.49689564 -0.3583814 4.74855352 0 0 Z " fill="#2D394F" transform="translate(114,109)"/>
<path d="M0 0 C0.8971875 0.7425 0.8971875 0.7425 1.8125 1.5 C2.1425 0.84 2.4725 0.18 2.8125 -0.5 C6.4425 -0.5 10.0725 -0.5 13.8125 -0.5 C13.91194869 5.31660061 13.9842413 11.13269792 14.03222656 16.94995117 C14.05224646 18.9256249 14.07947092 20.90124009 14.11425781 22.87670898 C14.16320207 25.7291515 14.18556525 28.58080549 14.203125 31.43359375 C14.22377014 32.30584091 14.24441528 33.17808807 14.26568604 34.07676697 C14.26788865 40.20211762 13.11256229 45.26675348 9.8125 50.5 C3.8956113 56.0964303 -1.59127367 56.69521494 -9.5625 56.75 C-10.305 56.770625 -11.0475 56.79125 -11.8125 56.8125 C-16.69908146 56.84703414 -19.89710109 56.08785966 -24.1875 53.5 C-23.5275 50.2 -22.8675 46.9 -22.1875 43.5 C-21.0325 43.83 -19.8775 44.16 -18.6875 44.5 C-13.31556209 45.8215918 -8.55076892 46.40508172 -3.25 44.375 C-0.54528677 41.91616979 -0.42565147 40.07227202 -0.1875 36.5 C-0.72632813 36.98597656 -1.26515625 37.47195312 -1.8203125 37.97265625 C-6.17447694 40.78202637 -11.19369201 40.09577602 -16.1875 39.5 C-21.13336526 37.20370541 -23.49510518 34.18676135 -26.1875 29.5 C-28.3700979 22.95220629 -28.489234 14.27673298 -25.5625 7.9375 C-20.12435091 -1.08092518 -9.67224891 -4.55164654 0 0 Z M-11 10.8125 C-14.35509062 14.93446848 -14.54251591 17.17476129 -14.1875 22.5 C-12.60522398 26.80843924 -12.60522398 26.80843924 -9.1875 29.5 C-5.01433426 29.92842753 -5.01433426 29.92842753 -1.375 28.1875 C1.52531292 24.0660027 1.2694402 19.32325765 0.8125 14.5 C-0.10770732 11.46175425 -0.10770732 11.46175425 -2.1875 9.5 C-6.35399769 7.86963134 -7.50155774 7.93600303 -11 10.8125 Z " fill="#2D394F" transform="translate(345.1875,125.5)"/>
<path d="M0 0 C4.29 0 8.58 0 13 0 C13.33 10.56 13.66 21.12 14 32 C16.97 27.71 19.94 23.42 23 19 C26.99076504 17.89804704 28.28550445 17.62806771 32.0625 18.1875 C32.83271484 18.24615234 33.60292969 18.30480469 34.39648438 18.36523438 C36.27017096 18.51652584 38.1369487 18.74973938 40 19 C38.7315625 20.485 38.7315625 20.485 37.4375 22 C36.89867187 22.63550781 36.35984375 23.27101563 35.8046875 23.92578125 C34.56919284 25.34579784 33.30148063 26.7382391 32.0078125 28.10546875 C31.36585938 28.79253906 30.72390625 29.47960937 30.0625 30.1875 C29.45535156 30.82042969 28.84820312 31.45335938 28.22265625 32.10546875 C26.77378687 33.89500129 26.77378687 33.89500129 27.27368164 35.88623047 C28.0507959 38.14782886 29.02004527 39.76479273 30.3984375 41.71484375 C30.87796875 42.40126953 31.3575 43.08769531 31.8515625 43.79492188 C32.35429687 44.50197266 32.85703125 45.20902344 33.375 45.9375 C39.44881371 54.56579525 39.44881371 54.56579525 42 59 C30.26367487 60.56039777 30.26367487 60.56039777 25 59 C20.87227117 55.7720831 18.81479445 50.78613588 17 46 C17 45.34 17 44.68 17 44 C16.01 44.66 15.02 45.32 14 46 C13.41407366 49.11610554 13.41407366 49.11610554 13.3125 52.625 C13.1578125 55.780625 13.1578125 55.780625 13 59 C8.71 59 4.42 59 0 59 C0 39.53 0 20.06 0 0 Z " fill="#21BF73" transform="translate(313,39)"/>
<path d="M0 0 C3.61388342 2.20410066 5.79864702 4.86682529 7.68359375 8.63671875 C7.83879932 10.95945034 7.93378542 13.28631188 8 15.61328125 C8.0207811 16.29852875 8.04156219 16.98377625 8.06297302 17.68978882 C8.1283956 19.88032944 8.18731929 22.07099064 8.24609375 24.26171875 C8.28928593 25.74610625 8.33290045 27.23048153 8.37695312 28.71484375 C8.48406928 32.35533959 8.58535737 35.99597126 8.68359375 39.63671875 C4.72359375 39.63671875 0.76359375 39.63671875 -3.31640625 39.63671875 C-3.31640625 38.97671875 -3.31640625 38.31671875 -3.31640625 37.63671875 C-4.05890625 38.13171875 -4.80140625 38.62671875 -5.56640625 39.13671875 C-10.51784746 41.57127535 -15.963542 41.53840444 -21.31640625 40.63671875 C-25.40213904 38.42708775 -27.84498668 36.05097747 -29.31640625 31.63671875 C-29.71255279 26.38777708 -29.18197942 23.08329781 -26.31640625 18.63671875 C-21.44066665 13.76097915 -16.11388992 12.5328647 -9.37890625 12.51171875 C-8.0244686 12.54337506 -6.67008666 12.58146649 -5.31640625 12.63671875 C-5.64640625 11.31671875 -5.97640625 9.99671875 -6.31640625 8.63671875 C-12.72270049 8.42819561 -18.24613267 8.47839925 -24.31640625 10.63671875 C-24.97640625 7.66671875 -25.63640625 4.69671875 -26.31640625 1.63671875 C-18.3570241 -2.26175414 -8.32054314 -3.42034105 0 0 Z M-14.31640625 22.63671875 C-15.83433269 25.13313003 -15.83433269 25.13313003 -16.31640625 27.63671875 C-14.99640625 28.95671875 -13.67640625 30.27671875 -12.31640625 31.63671875 C-10.29595183 31.03488126 -8.29529586 30.36365779 -6.31640625 29.63671875 C-4.83808365 26.68007356 -5.25607842 23.89442138 -5.31640625 20.63671875 C-8.61514965 20.63671875 -11.24064226 21.48330725 -14.31640625 22.63671875 Z " fill="#2D394F" transform="translate(302.31640625,125.36328125)"/>
<path d="M0 0 C3.61388342 2.20410066 5.79864702 4.86682529 7.68359375 8.63671875 C7.83879932 10.95945034 7.93378542 13.28631188 8 15.61328125 C8.0207811 16.29852875 8.04156219 16.98377625 8.06297302 17.68978882 C8.1283956 19.88032944 8.18731929 22.07099064 8.24609375 24.26171875 C8.28928593 25.74610625 8.33290045 27.23048153 8.37695312 28.71484375 C8.48406928 32.35533959 8.58535737 35.99597126 8.68359375 39.63671875 C4.72359375 39.63671875 0.76359375 39.63671875 -3.31640625 39.63671875 C-3.31640625 38.97671875 -3.31640625 38.31671875 -3.31640625 37.63671875 C-4.05890625 38.13171875 -4.80140625 38.62671875 -5.56640625 39.13671875 C-10.51784746 41.57127535 -15.963542 41.53840444 -21.31640625 40.63671875 C-25.40213904 38.42708775 -27.84498668 36.05097747 -29.31640625 31.63671875 C-29.71255279 26.38777708 -29.18197942 23.08329781 -26.31640625 18.63671875 C-21.44066665 13.76097915 -16.11388992 12.5328647 -9.37890625 12.51171875 C-8.0244686 12.54337506 -6.67008666 12.58146649 -5.31640625 12.63671875 C-5.64640625 11.31671875 -5.97640625 9.99671875 -6.31640625 8.63671875 C-12.72270049 8.42819561 -18.24613267 8.47839925 -24.31640625 10.63671875 C-24.97640625 7.66671875 -25.63640625 4.69671875 -26.31640625 1.63671875 C-18.3570241 -2.26175414 -8.32054314 -3.42034105 0 0 Z M-14.31640625 22.63671875 C-15.83433269 25.13313003 -15.83433269 25.13313003 -16.31640625 27.63671875 C-14.99640625 28.95671875 -13.67640625 30.27671875 -12.31640625 31.63671875 C-10.29595183 31.03488126 -8.29529586 30.36365779 -6.31640625 29.63671875 C-4.83808365 26.68007356 -5.25607842 23.89442138 -5.31640625 20.63671875 C-8.61514965 20.63671875 -11.24064226 21.48330725 -14.31640625 22.63671875 Z " fill="#2D394F" transform="translate(209.31640625,125.36328125)"/>
<path d="M0 0 C3.61388342 2.20410066 5.79864702 4.86682529 7.68359375 8.63671875 C7.83879932 10.95945034 7.93378542 13.28631188 8 15.61328125 C8.0207811 16.29852875 8.04156219 16.98377625 8.06297302 17.68978882 C8.1283956 19.88032944 8.18731929 22.07099064 8.24609375 24.26171875 C8.28928593 25.74610625 8.33290045 27.23048153 8.37695312 28.71484375 C8.48406928 32.35533959 8.58535737 35.99597126 8.68359375 39.63671875 C4.72359375 39.63671875 0.76359375 39.63671875 -3.31640625 39.63671875 C-3.31640625 38.97671875 -3.31640625 38.31671875 -3.31640625 37.63671875 C-4.05890625 38.13171875 -4.80140625 38.62671875 -5.56640625 39.13671875 C-10.51784746 41.57127535 -15.963542 41.53840444 -21.31640625 40.63671875 C-25.40213904 38.42708775 -27.84498668 36.05097747 -29.31640625 31.63671875 C-29.71255279 26.38777708 -29.18197942 23.08329781 -26.31640625 18.63671875 C-21.44066665 13.76097915 -16.11388992 12.5328647 -9.37890625 12.51171875 C-8.0244686 12.54337506 -6.67008666 12.58146649 -5.31640625 12.63671875 C-5.64640625 11.31671875 -5.97640625 9.99671875 -6.31640625 8.63671875 C-12.72270049 8.42819561 -18.24613267 8.47839925 -24.31640625 10.63671875 C-24.97640625 7.66671875 -25.63640625 4.69671875 -26.31640625 1.63671875 C-18.3570241 -2.26175414 -8.32054314 -3.42034105 0 0 Z M-14.31640625 22.63671875 C-15.83433269 25.13313003 -15.83433269 25.13313003 -16.31640625 27.63671875 C-14.99640625 28.95671875 -13.67640625 30.27671875 -12.31640625 31.63671875 C-10.29595183 31.03488126 -8.29529586 30.36365779 -6.31640625 29.63671875 C-4.83808365 26.68007356 -5.25607842 23.89442138 -5.31640625 20.63671875 C-8.61514965 20.63671875 -11.24064226 21.48330725 -14.31640625 22.63671875 Z " fill="#21BF73" transform="translate(259.31640625,58.36328125)"/>
<path d="M0 0 C5.30404558 5.14331692 6.32634989 10.17576776 6.453125 17.34375 C6.44100137 20.06376929 6.38019058 22.78088209 6.3125 25.5 C6.29240166 26.90882874 6.27415678 28.31768521 6.2578125 29.7265625 C6.21089775 33.15133915 6.13916209 36.57576008 6.0625 40 C1.7725 40 -2.5175 40 -6.9375 40 C-6.98648438 38.32550781 -7.03546875 36.65101563 -7.0859375 34.92578125 C-7.16098238 32.72133791 -7.23652947 30.51691163 -7.3125 28.3125 C-7.3434375 27.20970703 -7.374375 26.10691406 -7.40625 24.97070312 C-7.44492188 23.90400391 -7.48359375 22.83730469 -7.5234375 21.73828125 C-7.5548584 20.75899658 -7.5862793 19.77971191 -7.61865234 18.77075195 C-7.95179569 15.87577199 -8.73550587 13.64227833 -9.9375 11 C-12.5775 11 -15.2175 11 -17.9375 11 C-18.91049662 14.31026609 -19.13096782 17.41709908 -19.25390625 20.859375 C-19.29580078 21.97441406 -19.33769531 23.08945313 -19.38085938 24.23828125 C-19.43983398 25.97658203 -19.43983398 25.97658203 -19.5 27.75 C-19.54318359 28.92433594 -19.58636719 30.09867188 -19.63085938 31.30859375 C-19.73684717 34.20559355 -19.83766916 37.1027815 -19.9375 40 C-24.2275 40 -28.5175 40 -32.9375 40 C-33.2675 26.8 -33.5975 13.6 -33.9375 0 C-29.9775 0 -26.0175 0 -21.9375 0 C-21.6075 0.99 -21.2775 1.98 -20.9375 3 C-20.009375 2.34 -19.08125 1.68 -18.125 1 C-12.50000866 -2.21919056 -6.03484933 -2.05441679 0 0 Z " fill="#2D394F" transform="translate(259.9375,125)"/>
<path d="M0 0 C4.18355195 2.19659264 6.51717107 5.23031822 8.73046875 9.31640625 C9.73046875 13.31640625 9.73046875 13.31640625 9.73046875 24.31640625 C1.15046875 24.31640625 -7.42953125 24.31640625 -16.26953125 24.31640625 C-13.92032262 29.46102656 -13.92032262 29.46102656 -10.26953125 30.31640625 C-7.53087838 30.38691739 -4.81925537 30.4099839 -2.08203125 30.37890625 C-1.33244141 30.37439453 -0.58285156 30.36988281 0.18945312 30.36523438 C2.03649258 30.35346979 3.88349088 30.3355349 5.73046875 30.31640625 C7.73046875 35.94140625 7.73046875 35.94140625 7.73046875 39.31640625 C-0.09157996 42.40081032 -9.85769146 42.74057462 -18.015625 40.59375 C-22.97257488 38.27925733 -26.0110604 34.93860188 -28.34375 30.078125 C-30.39685729 23.95345474 -30.37166915 16.67485222 -28.359375 10.54296875 C-22.81071616 -0.197522 -11.47573984 -3.45654814 0 0 Z M-14.58203125 10.12890625 C-16.44584299 12.2968823 -16.44584299 12.2968823 -17.26953125 15.31640625 C-12.31953125 15.31640625 -7.36953125 15.31640625 -2.26953125 15.31640625 C-3.80995873 10.5133659 -3.80995873 10.5133659 -6.26953125 8.31640625 C-9.95834397 7.83525677 -11.61131711 7.80050868 -14.58203125 10.12890625 Z " fill="#2D394F" transform="translate(395.26953125,124.68359375)"/>
<path d="M0 0 C14.52 0 29.04 0 44 0 C44 3.63 44 7.26 44 11 C38.72 11 33.44 11 28 11 C28 25.85 28 40.7 28 56 C23.71 56 19.42 56 15 56 C15 41.15 15 26.3 15 11 C10.05 11 5.1 11 0 11 C0 7.37 0 3.74 0 0 Z " fill="#21BF73" transform="translate(189,42)"/>
<path d="M0 0 C1.22589844 -0.01417969 2.45179688 -0.02835938 3.71484375 -0.04296875 C7.0625 0.1875 7.0625 0.1875 11.0625 2.1875 C10.4025 5.1575 9.7425 8.1275 9.0625 11.1875 C5.1025 10.8575 1.1425 10.5275 -2.9375 10.1875 C-2.9375 11.5075 -2.9375 12.8275 -2.9375 14.1875 C-2.27363281 14.40664062 -1.60976563 14.62578125 -0.92578125 14.8515625 C5.06526112 17.00309012 8.71510076 18.68048834 12.0625 24.1875 C13.00314216 27.76194021 13.27300777 30.2051304 12.5 33.8125 C10.00792471 37.92984178 6.67298776 40.65067075 2.0625 42.1875 C-0.37276603 42.30912188 -2.81172867 42.36294129 -5.25 42.375 C-6.54550781 42.38917969 -7.84101563 42.40335938 -9.17578125 42.41796875 C-12.8037588 42.19569391 -15.5707728 41.50809222 -18.9375 40.1875 C-18.2775 36.8875 -17.6175 33.5875 -16.9375 30.1875 C-15.596875 30.5175 -14.25625 30.8475 -12.875 31.1875 C-8.77051179 32.10971096 -5.13044357 32.36592313 -0.9375 32.1875 C-0.98734919 30.26543687 -0.98734919 30.26543687 -1.9375 28.1875 C-4.59947442 26.52586287 -4.59947442 26.52586287 -7.8125 25.1875 C-11.90812491 23.37160847 -14.65526838 22.12815326 -16.9375 18.1875 C-17.97439678 14.18804098 -18.19503726 11.9171889 -16.8125 8 C-12.34237623 1.29481435 -7.74203581 0.04061929 0 0 Z " fill="#21BF73" transform="translate(292.9375,56.8125)"/>
<path d="M0 0 C0 3.96 0 7.92 0 12 C-3.3 12.66 -6.6 13.32 -10 14 C-10.83908391 17.35633563 -11.1836388 20.00785488 -11.31640625 23.421875 C-11.35830078 24.44667969 -11.40019531 25.47148437 -11.44335938 26.52734375 C-11.48267578 27.59082031 -11.52199219 28.65429688 -11.5625 29.75 C-11.60568359 30.82894531 -11.64886719 31.90789062 -11.69335938 33.01953125 C-11.79928901 35.67954211 -11.90013456 38.33975456 -12 41 C-16.29 41 -20.58 41 -25 41 C-25.33 27.8 -25.66 14.6 -26 1 C-22.04 1 -18.08 1 -14 1 C-13.67 2.32 -13.34 3.64 -13 5 C-12.154375 4.175 -11.30875 3.35 -10.4375 2.5 C-7.03972892 -0.3787798 -4.43607134 -0.44360713 0 0 Z " fill="#2D394F" transform="translate(437,124)"/>
</svg>
